<svg width="1080" height="1080" viewBox="0 0 1080 1080" xmlns="http://www.w3.org/2000/svg">
  <!-- Background Gradient (matching CarWise.ai design) -->
  <defs>
    <linearGradient id="bgGradient" x1="0%" y1="0%" x2="100%" y2="100%">
      <stop offset="0%" style="stop-color:#3b82f6;stop-opacity:1" />
      <stop offset="50%" style="stop-color:#1e40af;stop-opacity:1" />
      <stop offset="100%" style="stop-color:#1e3a8a;stop-opacity:1" />
    </linearGradient>
    
    <linearGradient id="cardGradient" x1="0%" y1="0%" x2="100%" y2="100%">
      <stop offset="0%" style="stop-color:#ffffff;stop-opacity:0.95" />
      <stop offset="100%" style="stop-color:#f8fafc;stop-opacity:0.95" />
    </linearGradient>
    
    <linearGradient id="textGradient" x1="0%" y1="0%" x2="100%" y2="0%">
      <stop offset="0%" style="stop-color:#3b82f6;stop-opacity:1" />
      <stop offset="100%" style="stop-color:#1e40af;stop-opacity:1" />
    </linearGradient>
  </defs>
  
  <!-- Background -->
  <rect width="1080" height="1080" fill="url(#bgGradient)"/>
  
  <!-- Floating Elements (matching CarWise.ai design) -->
  <circle cx="200" cy="200" r="60" fill="#ffffff" opacity="0.1"/>
  <circle cx="880" cy="300" r="80" fill="#ffffff" opacity="0.08"/>
  <circle cx="150" cy="800" r="40" fill="#ffffff" opacity="0.12"/>
  <circle cx="900" cy="850" r="50" fill="#ffffff" opacity="0.1"/>
  
  <!-- Main Card Container -->
  <rect x="90" y="150" width="900" height="780" rx="24" fill="url(#cardGradient)" stroke="#ffffff" stroke-width="2" opacity="0.95"/>
  
  <!-- CarWise.ai Logo Area -->
  <g transform="translate(540, 220)">
    <!-- Logo Icon (car with AI elements) -->
    <g transform="translate(-40, -30)">
      <!-- Car Body -->
      <rect x="0" y="15" width="80" height="35" rx="8" fill="#3b82f6"/>
      <!-- Car Roof -->
      <rect x="15" y="0" width="50" height="25" rx="6" fill="#1e40af"/>
      <!-- Wheels -->
      <circle cx="20" cy="55" r="12" fill="#1f2937"/>
      <circle cx="60" cy="55" r="12" fill="#1f2937"/>
      <!-- Headlights -->
      <circle cx="5" cy="30" r="4" fill="#fbbf24"/>
      <circle cx="75" cy="30" r="4" fill="#fbbf24"/>
      <!-- AI Circuit Pattern -->
      <g transform="translate(25, 10)" opacity="0.8">
        <rect x="0" y="0" width="2" height="2" fill="#10b981"/>
        <rect x="4" y="0" width="2" height="2" fill="#10b981"/>
        <rect x="8" y="0" width="2" height="2" fill="#10b981"/>
        <rect x="2" y="4" width="2" height="2" fill="#10b981"/>
        <rect x="6" y="4" width="2" height="2" fill="#10b981"/>
        <rect x="0" y="8" width="2" height="2" fill="#10b981"/>
        <rect x="4" y="8" width="2" height="2" fill="#10b981"/>
        <rect x="8" y="8" width="2" height="2" fill="#10b981"/>
      </g>
    </g>
    
    <!-- Brand Name -->
    <text x="0" y="40" font-family="Arial, sans-serif" font-size="48" font-weight="bold" fill="url(#textGradient)" text-anchor="middle">
      CarWise.ai
    </text>
  </g>
  
  <!-- Main Headline -->
  <text x="540" y="350" font-family="Arial, sans-serif" font-size="36" font-weight="bold" fill="#1f2937" text-anchor="middle">
    Smart Car Diagnosis
  </text>
  
  <!-- Subtitle -->
  <text x="540" y="390" font-family="Arial, sans-serif" font-size="24" fill="#3b82f6" text-anchor="middle">
    Powered by AI
  </text>
  
  <!-- Description -->
  <text x="540" y="430" font-family="Arial, sans-serif" font-size="18" fill="#6b7280" text-anchor="middle">
    Get instant, accurate diagnosis for your car problems
  </text>
  
  <!-- Features Section -->
  <g transform="translate(540, 500)">
    <!-- Feature 1 -->
    <g transform="translate(-200, 0)">
      <circle cx="0" cy="0" r="35" fill="#10b981" opacity="0.1"/>
      <circle cx="0" cy="0" r="25" fill="#10b981"/>
      <text x="0" y="8" font-family="Arial, sans-serif" font-size="16" font-weight="bold" fill="#ffffff" text-anchor="middle">⚡</text>
      <text x="0" y="60" font-family="Arial, sans-serif" font-size="16" font-weight="600" fill="#1f2937" text-anchor="middle">Instant</text>
      <text x="0" y="80" font-family="Arial, sans-serif" font-size="16" font-weight="600" fill="#1f2937" text-anchor="middle">Analysis</text>
    </g>
    
    <!-- Feature 2 -->
    <g transform="translate(0, 0)">
      <circle cx="0" cy="0" r="35" fill="#f59e0b" opacity="0.1"/>
      <circle cx="0" cy="0" r="25" fill="#f59e0b"/>
      <text x="0" y="8" font-family="Arial, sans-serif" font-size="16" font-weight="bold" fill="#ffffff" text-anchor="middle">🔧</text>
      <text x="0" y="60" font-family="Arial, sans-serif" font-size="16" font-weight="600" fill="#1f2937" text-anchor="middle">Expert</text>
      <text x="0" y="80" font-family="Arial, sans-serif" font-size="16" font-weight="600" fill="#1f2937" text-anchor="middle">Mechanics</text>
    </g>
    
    <!-- Feature 3 -->
    <g transform="translate(200, 0)">
      <circle cx="0" cy="0" r="35" fill="#8b5cf6" opacity="0.1"/>
      <circle cx="0" cy="0" r="25" fill="#8b5cf6"/>
      <text x="0" y="8" font-family="Arial, sans-serif" font-size="16" font-weight="bold" fill="#ffffff" text-anchor="middle">💰</text>
      <text x="0" y="60" font-family="Arial, sans-serif" font-size="16" font-weight="600" fill="#1f2937" text-anchor="middle">Transparent</text>
      <text x="0" y="80" font-family="Arial, sans-serif" font-size="16" font-weight="600" fill="#1f2937" text-anchor="middle">Pricing</text>
    </g>
  </g>
  
  <!-- Call to Action Button -->
  <g transform="translate(540, 650)">
    <rect x="-150" y="-25" width="300" height="50" rx="25" fill="#ef4444"/>
    <text x="0" y="8" font-family="Arial, sans-serif" font-size="20" font-weight="bold" fill="#ffffff" text-anchor="middle">
      Start Free Diagnosis
    </text>
  </g>
  
  <!-- Trust Indicators -->
  <g transform="translate(540, 750)">
    <text x="0" y="0" font-family="Arial, sans-serif" font-size="16" fill="#6b7280" text-anchor="middle">
      🚗 10,000+ Users • ⭐ 4.8/5 Rating • 🌍 Global Platform
    </text>
  </g>
  
  <!-- Hashtags -->
  <g transform="translate(540, 800)">
    <text x="0" y="0" font-family="Arial, sans-serif" font-size="14" fill="#3b82f6" text-anchor="middle">
      #CarWiseAI #CarDiagnosis #AITechnology #CarCare #SmartCars
    </text>
  </g>
  
  <!-- App Store Badges (bottom) -->
  <g transform="translate(540, 850)">
    <rect x="-80" y="-15" width="70" height="30" rx="8" fill="#000000"/>
    <text x="-45" y="2" font-family="Arial, sans-serif" font-size="10" fill="#ffffff" text-anchor="middle">App Store</text>
    
    <rect x="10" y="-15" width="70" height="30" rx="8" fill="#000000"/>
    <text x="45" y="2" font-family="Arial, sans-serif" font-size="10" fill="#ffffff" text-anchor="middle">Google Play</text>
  </g>
</svg>





